<?xml version="1.0" encoding="UTF-8" standalone="no"?>
<!-- Created with Inkscape (http://www.inkscape.org/) -->

<svg
   xmlns:dc="http://purl.org/dc/elements/1.1/"
   xmlns:cc="http://creativecommons.org/ns#"
   xmlns:rdf="http://www.w3.org/1999/02/22-rdf-syntax-ns#"
   xmlns:svg="http://www.w3.org/2000/svg"
   xmlns="http://www.w3.org/2000/svg"
   version="1.2"
   width="63"
   height="55.265984"
   viewBox="0 0 50.4 44.212787"
   id="svg3297">
  <desc
     id="desc3299">Fritzing breadboard generated by brd2svg</desc>
  <metadata
     id="metadata3569">
    <rdf:RDF>
      <cc:Work
         rdf:about="">
        <dc:format>image/svg+xml</dc:format>
        <dc:type
           rdf:resource="http://purl.org/dc/dcmitype/StillImage" />
        <dc:title></dc:title>
      </cc:Work>
    </rdf:RDF>
  </metadata>
  <defs
     id="defs3567" />
  <g
     transform="translate(-0.38670131,-0.51560099)"
     id="breadboard"
     style="stroke-width:0">
    <g
       transform="translate(3.8452685e-7,0.12890023)"
       id="icon"
       style="stroke-width:0">
      <path
         d="m 0.38670093,44.599488 50.34330007,0 0.0567,-44.21278724 -50.40000007,0 0,41.50588224 M 4.3467009,7.5867008 c 0,-0.7539822 0.686018,-1.4399994 1.44,-1.4399994 0.753982,0 1.44,0.6860172 1.44,1.4399994 0,0.7539822 -0.686018,1.4399995 -1.44,1.4399995 -0.753982,0 -1.44,-0.6860173 -1.44,-1.4399995 z m 0,7.1999992 c 0,-0.753982 0.686018,-1.439999 1.44,-1.439999 0.753982,0 1.44,0.686017 1.44,1.439999 0,0.753982 -0.686018,1.439999 -1.44,1.439999 -0.753982,0 -1.44,-0.686017 -1.44,-1.439999 z m 0,7.2 c 0,-0.753982 0.686018,-1.439999 1.44,-1.439999 0.753982,0 1.44,0.686017 1.44,1.439999 0,0.753982 -0.686018,1.439999 -1.44,1.439999 -0.753982,0 -1.44,-0.686017 -1.44,-1.439999 z m 0,7.2 c 0,-0.753982 0.686018,-1.439999 1.44,-1.439999 0.753982,0 1.44,0.686017 1.44,1.439999 0,0.753982 -0.686018,1.439999 -1.44,1.439999 -0.753982,0 -1.44,-0.686017 -1.44,-1.439999 z m 0,7.2 c 0,-0.753982 0.686018,-1.439999 1.44,-1.439999 0.753982,0 1.44,0.686017 1.44,1.439999 0,0.753982 -0.686018,1.439999 -1.44,1.439999 -0.753982,0 -1.44,-0.686017 -1.44,-1.439999 z"
         id="path3303"
         style="fill:#000080;stroke:none" />
      <g
         id="g3305"
         style="stroke-width:0">
        <title
           id="title3307">layer 21</title>
        <line
           y1="7.593348"
           x1="28.669245"
           y2="1.3031639"
           x2="28.669245"
           id="line3309"
           style="stroke:#ffffff;stroke-width:0.37001088;stroke-linecap:round" />
        <line
           y1="1.3031639"
           x1="28.669245"
           y2="2.2281923"
           x2="29.594269"
           id="line3311"
           style="stroke:#ffffff;stroke-width:0.37001088;stroke-linecap:round" />
        <line
           y1="1.3031639"
           x1="28.669245"
           y2="2.2281923"
           x2="27.744215"
           id="line3313"
           style="stroke:#ffffff;stroke-width:0.37001088;stroke-linecap:round" />
        <line
           y1="10.553435"
           x1="26.079166"
           y2="10.553435"
           x2="19.418972"
           id="line3315"
           style="stroke:#ffffff;stroke-width:0.37001088;stroke-linecap:round" />
        <line
           y1="10.553435"
           x1="19.418972"
           y2="11.47846"
           x2="20.344"
           id="line3317"
           style="stroke:#ffffff;stroke-width:0.37001088;stroke-linecap:round" />
        <line
           y1="10.553435"
           x1="19.418972"
           y2="9.6284046"
           x2="20.344"
           id="line3319"
           style="stroke:#ffffff;stroke-width:0.37001088;stroke-linecap:round" />
        <circle
           cx="42.119999"
           cy="41.759998"
           r="2.5455101"
           transform="matrix(0.51390398,0,0,0.51390398,6.2835869,-11.832222)"
           id="circle3321"
           style="fill:none;stroke:#ffffff;stroke-width:1.08000004" />
        <circle
           cx="42.119999"
           cy="41.759998"
           r="0.72000003"
           transform="matrix(0.51390398,0,0,0.51390398,6.2835869,-11.832222)"
           id="circle3323"
           style="fill:none;stroke:#ffffff;stroke-width:1.08000004" />
        <circle
           cx="42.119999"
           cy="41.759998"
           r="0.36000001"
           transform="matrix(0.51390398,0,0,0.51390398,6.2835869,-11.832222)"
           id="circle3325"
           style="fill:none;stroke:#ffffff;stroke-width:0.72000003" />
        <g
           transform="matrix(0.51390398,0,0,0.51390398,1.4835869,-13.432222)"
           id="g3369"
           style="stroke-width:0">
          <title
             id="title3371">text:X</title>
          <text
             x="45"
             y="33.84"
             id="text3373"
             style="font-size:5.84639978px;text-anchor:start;fill:#ffffff;stroke:none;font-family:OCRA">X</text>
        </g>
        <g
           transform="matrix(-0.51390398,0,0,-0.51390398,37.256402,37.497807)"
           id="g3375"
           style="stroke-width:0">
          <title
             id="title3377">text:Y</title>
          <text
             x="33.48"
             y="50.1264"
             id="text3379"
             style="font-size:5.84639978px;text-anchor:end;fill:#ffffff;stroke:none;font-family:OCRA">Y</text>
        </g>
        <g
           transform="matrix(0.51390398,0,0,0.51390398,6.2835869,-11.832222)"
           id="g3381"
           style="stroke-width:0">
          <title
             id="title3383">text:Z</title>
          <text
             x="44.639999"
             y="48.599998"
             id="text3385"
             style="font-size:5.84639978px;text-anchor:start;fill:#ffffff;stroke:none;font-family:OCRA">Z</text>
        </g>
        <g
           transform="translate(0.38670077,-2.9421995)"
           id="g3427"
           style="stroke-width:0">
          <title
             id="title3429">element:SL1</title>
          <rect
             width="7.4762144"
             height="37.967777"
             x="1.546803"
             y="5.9294119"
             id="rect3623"
             style="fill:#333333;fill-opacity:0.03921569;stroke:#ffffff;stroke-width:0.36642671;stroke-miterlimit:4;stroke-opacity:1;stroke-dasharray:none" />
        </g>
        <g
           id="g3511"
           style="stroke-width:0">
          <title
             id="title3513">element:U$1</title>
          <g
             id="g3515"
             style="stroke-width:0">
            <title
               id="title3517">package:FIDUCIAL-1X2</title>
          </g>
        </g>
        <g
           id="g3519"
           style="stroke-width:0">
          <title
             id="title3521">element:U$2</title>
          <g
             id="g3523"
             style="stroke-width:0">
            <title
               id="title3525">package:SFE-NEW-WEBLOGO</title>
          </g>
        </g>
        <g
           id="g3527"
           style="stroke-width:0">
          <title
             id="title3529">element:U$3</title>
          <g
             id="g3531"
             style="stroke-width:0">
            <title
               id="title3533">package:FIDUCIAL-1X2</title>
          </g>
        </g>
        <g
           transform="translate(0.667008,-1.2664963)"
           id="g3535"
           style="stroke-width:0">
          <title
             id="title3537">element:U$4</title>
          <g
             id="g3539"
             style="stroke-width:0">
            <title
               id="title3541">package:LFCSP-16</title>
            <line
               y1="30.869301"
               x1="20.948"
               y2="30.869301"
               x2="19.530701"
               id="line3545"
               style="stroke:#ffffff;stroke-width:0.57599998;stroke-linecap:round" />
            <line
               y1="29.452"
               x1="19.530701"
               y2="30.869301"
               x2="19.530701"
               id="line3547"
               style="stroke:#ffffff;stroke-width:0.57599998;stroke-linecap:round" />
            <line
               y1="20.948"
               x1="19.530701"
               y2="19.530701"
               x2="19.530701"
               id="line3549"
               style="stroke:#ffffff;stroke-width:0.57599998;stroke-linecap:round" />
            <line
               y1="19.530701"
               x1="19.530701"
               y2="19.530701"
               x2="20.948"
               id="line3551"
               style="stroke:#ffffff;stroke-width:0.57599998;stroke-linecap:round" />
            <line
               y1="19.530701"
               x1="29.452"
               y2="19.530701"
               x2="30.869301"
               id="line3553"
               style="stroke:#ffffff;stroke-width:0.57599998;stroke-linecap:round" />
            <line
               y1="19.530701"
               x1="30.869301"
               y2="20.948"
               x2="30.869301"
               id="line3555"
               style="stroke:#ffffff;stroke-width:0.57599998;stroke-linecap:round" />
            <line
               style="stroke:#ffffff;stroke-width:0.57599998;stroke-linecap:round"
               id="line4393"
               x2="20.948"
               y2="19.530701"
               x1="19.530701"
               y1="19.530701" />
            <line
               style="stroke:#ffffff;stroke-width:0.57599998;stroke-linecap:round"
               id="line4395"
               x2="29.130695"
               y2="30.869308"
               x1="30.547995"
               y1="30.869308" />
            <line
               style="stroke:#ffffff;stroke-width:0.57599998;stroke-linecap:round"
               id="line4397"
               x2="30.547987"
               y2="29.452"
               x1="30.547987"
               y1="30.869301" />
          </g>
        </g>
      </g>
      <rect
         width="10.822999"
         height="11.0808"
         x="20.273411"
         y="18.32354"
         id="rect3557"
         style="fill:#333333;fill-opacity:1;stroke:none" />
      <circle
         cx="5.4000001"
         cy="7.1999998"
         r="2.052"
         transform="translate(0.38670077,0.4092072)"
         id="connector8pin"
         style="fill:none;stroke:#9a916c;stroke-width:1.22399998" />
      <circle
         cx="5.4000001"
         cy="14.4"
         r="2.052"
         transform="translate(0.38670077,0.4092072)"
         id="connector9pin"
         style="fill:none;stroke:#9a916c;stroke-width:1.22399998" />
      <circle
         cx="5.4000001"
         cy="21.6"
         r="2.052"
         transform="translate(0.38670077,0.4092072)"
         id="connector10pin"
         style="fill:none;stroke:#9a916c;stroke-width:1.22399998" />
      <circle
         cx="5.4000001"
         cy="28.799999"
         r="2.052"
         transform="translate(0.38670077,0.4092072)"
         id="connector11pin"
         style="fill:none;stroke:#9a916c;stroke-width:1.22399998" />
      <circle
         cx="5.4000001"
         cy="36"
         r="2.052"
         transform="translate(0.38670077,0.4092072)"
         id="connector12pin"
         style="fill:none;stroke:#9a916c;stroke-width:1.22399998" />
    </g>
  </g>
</svg>
