<?xml version="1.0" encoding="UTF-8" standalone="no"?>
<!-- Created with Inkscape (http://www.inkscape.org/) -->

<svg
   xmlns:dc="http://purl.org/dc/elements/1.1/"
   xmlns:cc="http://creativecommons.org/ns#"
   xmlns:rdf="http://www.w3.org/1999/02/22-rdf-syntax-ns#"
   xmlns:svg="http://www.w3.org/2000/svg"
   xmlns="http://www.w3.org/2000/svg"
   version="1.1"
   width="16.527"
   height="24.082001"
   viewBox="0 0 16.527 24.082"
   id="Layer_1"
   xml:space="preserve"><metadata
   id="metadata25"><rdf:RDF><cc:Work
       rdf:about=""><dc:format>image/svg+xml</dc:format><dc:type
         rdf:resource="http://purl.org/dc/dcmitype/StillImage" /><dc:title></dc:title></cc:Work></rdf:RDF></metadata><defs
   id="defs23" />
<g
   id="breadboard">
	<rect
   width="2.1600001"
   height="1"
   x="0"
   y="22.082001"
   id="connector0pin"
   style="fill:none" />
	<rect
   width="2.1589999"
   height="1"
   x="7.1810002"
   y="22.082001"
   id="connector1pin"
   style="fill:none" />
	<rect
   width="2.1600001"
   height="1"
   x="14.367"
   y="22.082001"
   id="connector2pin"
   style="fill:none" />
	
		<line
   id="connector0leg"
   fill="none"
   stroke="#8C8C8C"
   stroke-width="2.16"
   stroke-linecap="round"
   x1="1.08"
   y1="24.082001"
   x2="1.08"
   y2="31.259001"
   style="fill:none;stroke:#8c8c8c;stroke-width:2.16000009;stroke-linecap:round" />
	
		<line
   id="connector1leg"
   fill="none"
   stroke="#8C8C8C"
   stroke-width="2.16"
   stroke-linecap="round"
   x1="8.2600002"
   y1="24.082001"
   x2="8.2600002"
   y2="31.259001"
   style="fill:none;stroke:#8c8c8c;stroke-width:2.16000009;stroke-linecap:round" />
	
		<line
   id="connector2leg"
   fill="none"
   stroke="#8C8C8C"
   stroke-width="2.16"
   stroke-linecap="round"
   x1="15.447"
   y1="24.082001"
   x2="15.447"
   y2="31.259001"
   style="fill:none;stroke:#8c8c8c;stroke-width:2.16000009;stroke-linecap:round" />
	<rect
   width="2.154"
   height="9.3509998"
   x="7.177"
   y="14.731"
   id="rect9506"
   style="fill:#8c8c8c" />
	<path
   d="m 3.287,14.731 v 3.315 c 0,0.424 -0.782,1.06 -1.198,1.426 -1.024,0.891 -2.088,1.818 -2.088,2.992 v 1.619 h 2.154 c 0,0 0,-1 0,-1.211 0,-0.517 0.904,-1.389 1.35,-1.769 0.997,-0.87 1.945,-1.69 1.945,-2.749 V 14.73 l -2.163,10e-4 0,0 z"
   id="path9510"
   style="fill:#8c8c8c" />
	<path
   d="m 13.22,14.731 v 3.315 c 0,0.424 0.781,1.06 1.199,1.426 1.027,0.891 2.089,1.818 2.089,2.992 v 1.619 h -2.153 c 0,0 0,-1 0,-1.211 0,-0.517 -0.904,-1.389 -1.351,-1.769 -0.998,-0.87 -1.944,-1.69 -1.944,-2.749 V 14.73 l 2.16,10e-4 0,0 z"
   id="path9514"
   style="fill:#8c8c8c" />
	<rect
   width="13.278"
   height="10.07"
   x="1.615"
   y="4.6589999"
   id="rect9553"
   style="fill:#1a1a1a" />
	<path
   d="m 13.888,4.659 v 2.453 8.228 1.843 c 0.633,-0.714 1.005,-1.554 1.005,-2.453 l 0,0 V 4.659 h -1.005 z"
   id="path9555"
   style="fill:#141414" />
	<path
   d="M 2.621,4.659 H 1.616 v 10.07 l 0,0 c 0,0.899 0.373,1.739 1.005,2.453 V 15.339 7.112 4.659 z"
   id="path9557"
   style="fill:#242424" />
	<path
   d="m 1.615,4.659 0,0 c 0,0.899 0.373,1.74 1.005,2.453 h 11.276 c 0.632,-0.713 1.005,-1.554 1.005,-2.453 l 0,0 H 1.615 z"
   id="path9559"
   style="fill:#1f1f1f" />
	<path
   d="M 8.255,0 C 4.587,0 1.615,2.086 1.615,4.661 H 14.893 C 14.893,2.086 11.923,0 8.255,0 z"
   id="path9561"
   style="fill:#141414" />
	<rect
   width="11.276"
   height="10.07"
   x="2.6210001"
   y="7.112"
   id="rect9563" />
	<text
   transform="translate(5.8171,11.9995)"
   id="label0"
   style="font-size:3px;fill:#e6e6e6;font-family:OCRAStd">LM</text>

	<text
   x="5.0588608"
   y="14.9995"
   id="label0_1_"
   style="font-size:3px;fill:#e6e6e6;font-family:OCRAStd">334</text>

</g>
</svg>