<?xml version="1.0" encoding="utf-8"?>
<!-- Generator: Adobe Illustrator 15.1.0, SVG Export Plug-In . SVG Version: 6.00 Build 0)  -->
<!DOCTYPE svg PUBLIC "-//W3C//DTD SVG 1.1//EN" "http://www.w3.org/Graphics/SVG/1.1/DTD/svg11.dtd">
<svg version="1.1" xmlns="http://www.w3.org/2000/svg" xmlns:xlink="http://www.w3.org/1999/xlink" x="0px" y="0px"
	 width="46.541px" height="50.64px" viewBox="0 0 46.541 50.64" enable-background="new 0 0 46.541 50.64" xml:space="preserve">
<pattern  y="50.64" width="47" height="51" patternUnits="userSpaceOnUse" id="Unnamed_Pattern" viewBox="0 -51 47 51" overflow="visible">
	<g>
		<polygon fill="none" points="0,-51 47,-51 47,0 0,0 		"/>
		<path fill="#FFFFFF" d="M0-0.801C0-0.359,0.359,0,0.801,0h44.941c0.438,0,0.797-0.359,0.797-0.801v-0.398
			c0,0.438-0.359,0.801-0.797,0.801H0.801C0.359-0.398,0-0.762,0-1.199V-0.801z"/>
	</g>
</pattern>
<pattern  y="50.64" width="47" height="51" patternUnits="userSpaceOnUse" id="Unnamed_Pattern_1" viewBox="0 -51 47 51" overflow="visible">
	<g>
		<polygon fill="none" points="0,-51 47,-51 47,0 0,0 		"/>
		<path d="M46.539-22.699c0-0.441-0.359-0.801-0.797-0.801H0.801C0.359-23.5,0-23.141,0-22.699v0.398
			c0-0.438,0.359-0.801,0.801-0.801h44.941c0.438,0,0.797,0.363,0.797,0.801V-22.699z"/>
	</g>
</pattern>
<pattern  y="50.64" width="47" height="51" patternUnits="userSpaceOnUse" id="Unnamed_Pattern_2" viewBox="0 -51 47 51" overflow="visible">
	<g>
		<polygon fill="none" points="0,-51 47,-51 47,0 0,0 		"/>
		<path d="M46.539-46.199c0-0.441-0.359-0.801-0.797-0.801H0.801C0.359-47,0-46.641,0-46.199v0.398c0-0.441,0.359-0.801,0.801-0.801
			h44.941c0.438,0,0.797,0.359,0.797,0.801V-46.199z"/>
	</g>
</pattern>
<g id="Layer_1">
	<g>
		<defs>
			<rect id="SVGID_1_" width="46.541" height="50.64"/>
		</defs>
		<clipPath id="SVGID_2_">
			<use xlink:href="#SVGID_1_"  overflow="visible"/>
		</clipPath>
		<rect x="8.492" y="46.316" clip-path="url(#SVGID_2_)" fill="#CCCCCC" width="0.758" height="4.324"/>
		<rect x="43.051" y="46.316" clip-path="url(#SVGID_2_)" fill="#CCCCCC" width="0.758" height="4.324"/>
		<path clip-path="url(#SVGID_2_)" fill="#1A1A1A" d="M46.539,46.199c0,0.442-0.359,0.802-0.797,0.802H0.801
			C0.359,47,0,46.641,0,46.199V22.152c0-0.441,0.359-0.8,0.801-0.8h44.941c0.438,0,0.797,0.359,0.797,0.8V46.199z"/>
		<path clip-path="url(#SVGID_2_)" fill="#333333" d="M46.539,22.699c0,0.442-0.359,0.801-0.797,0.801H0.801
			C0.359,23.5,0,23.141,0,22.699V0.801C0,0.359,0.359,0,0.801,0h44.941c0.438,0,0.797,0.359,0.797,0.801V22.699z"/>
		<circle clip-path="url(#SVGID_2_)" fill="#1A1A1A" cx="23.27" cy="11.75" r="3.234"/>
		<circle clip-path="url(#SVGID_2_)" fill="#1A1A1A" cx="23.27" cy="11.75" r="3.234"/>
		<path clip-path="url(#SVGID_2_)" d="M24.031,12.086c0,0.418-0.34,0.758-0.762,0.758c-0.417,0-0.757-0.34-0.757-0.758
			c0-0.422,0.34-0.762,0.757-0.762C23.691,11.324,24.031,11.664,24.031,12.086z"/>
		<path clip-path="url(#SVGID_2_)" d="M23.27,9.184c1.672,0,3.031,1.273,3.199,2.902c0.016-0.113,0.035-0.223,0.035-0.336
			c0-1.785-1.449-3.234-3.234-3.234c-1.786,0-3.234,1.449-3.234,3.234c0,0.113,0.024,0.223,0.035,0.336
			C20.238,10.457,21.598,9.184,23.27,9.184z"/>
		<circle clip-path="url(#SVGID_2_)" fill="#1A1A1A" cx="37.537" cy="3.352" r="1.572"/>
		<path clip-path="url(#SVGID_2_)" d="M37.535,2.102c0.816,0,1.473,0.621,1.555,1.41c0.008-0.055,0.016-0.106,0.016-0.164
			c0-0.868-0.703-1.571-1.57-1.571s-1.57,0.703-1.57,1.571c0,0.058,0.012,0.109,0.016,0.164C36.062,2.723,36.723,2.102,37.535,2.102
			z"/>
		<circle clip-path="url(#SVGID_2_)" cx="37.537" cy="3.348" r="0.646"/>
		<path clip-path="url(#SVGID_2_)" d="M37.535,2.836c0.336,0,0.609,0.254,0.645,0.582c0-0.023,0.004-0.047,0.004-0.066
			c0-0.36-0.289-0.649-0.648-0.649s-0.645,0.289-0.645,0.649c0,0.023,0.004,0.043,0.004,0.066C36.93,3.09,37.203,2.836,37.535,2.836
			z"/>
		<rect x="36.895" y="3" clip-path="url(#SVGID_2_)" width="1.289" height="0.418"/>
		<circle clip-path="url(#SVGID_2_)" cx="37.537" cy="3.059" r="0.646"/>
		<path clip-path="url(#SVGID_2_)" fill="#1A1A1A" d="M37.785,3.059c0,0.136-0.109,0.25-0.25,0.25c-0.137,0-0.246-0.114-0.246-0.25
			c0-0.137,0.109-0.25,0.246-0.25C37.676,2.809,37.785,2.922,37.785,3.059z"/>
		<path clip-path="url(#SVGID_2_)" fill="#333333" d="M37.535,2.477c0.336,0,0.609,0.257,0.645,0.582c0-0.024,0.004,0.023,0.004,0
			c0-0.356-0.289-0.649-0.648-0.649s-0.645,0.293-0.645,0.649c0,0.023,0.004-0.024,0.004,0C36.93,2.734,37.203,2.477,37.535,2.477z"
			/>
		<path clip-path="url(#SVGID_2_)" fill="#808080" d="M1.77,2.992c0,0.25,0.07,0.446,0.203,0.59c0.132,0.145,0.3,0.215,0.504,0.215
			c0.207,0,0.378-0.07,0.511-0.215c0.133-0.148,0.2-0.352,0.2-0.617c0-0.172-0.028-0.317-0.086-0.445
			c-0.055-0.125-0.141-0.223-0.25-0.293C2.742,2.16,2.617,2.125,2.48,2.125c-0.191,0-0.359,0.066-0.5,0.199
			C1.844,2.457,1.77,2.68,1.77,2.992z M1.488,2.988c0-0.343,0.094-0.613,0.278-0.808C1.949,1.984,2.188,1.887,2.48,1.887
			c0.192,0,0.364,0.047,0.52,0.136c0.152,0.094,0.27,0.219,0.352,0.383C3.43,2.57,3.473,2.758,3.473,2.965S3.43,3.363,3.344,3.527
			C3.258,3.691,3.137,3.82,2.984,3.902C2.828,3.992,2.66,4.031,2.48,4.031c-0.195,0-0.371-0.047-0.523-0.14
			C1.801,3.797,1.688,3.668,1.605,3.504C1.527,3.34,1.488,3.168,1.488,2.988z"/>
		<path clip-path="url(#SVGID_2_)" fill="#808080" d="M3.816,3.996v-2.07H4.23l0.489,1.465C4.766,3.527,4.797,3.633,4.82,3.699
			c0.024-0.074,0.059-0.187,0.11-0.332l0.496-1.441h0.367v2.07H5.531V2.262L4.93,3.996H4.68L4.078,2.234v1.762H3.816z"/>
		<path clip-path="url(#SVGID_2_)" fill="#808080" d="M6.516,2.84h0.589c0.125,0,0.223-0.016,0.293-0.039
			c0.071-0.028,0.125-0.067,0.161-0.125c0.039-0.059,0.054-0.117,0.054-0.184c0-0.101-0.035-0.179-0.105-0.246
			c-0.07-0.062-0.184-0.094-0.336-0.094H6.516V2.84z M6.242,3.996v-2.07H7.16c0.184,0,0.324,0.015,0.422,0.054
			c0.094,0.04,0.172,0.102,0.23,0.196C7.871,2.27,7.898,2.375,7.898,2.492c0,0.145-0.046,0.27-0.14,0.371
			C7.66,2.965,7.512,3.027,7.312,3.055C7.387,3.09,7.441,3.125,7.48,3.156C7.559,3.23,7.637,3.324,7.707,3.434L8.07,3.996H7.723
			l-0.274-0.43C7.367,3.441,7.301,3.348,7.25,3.281c-0.051-0.066-0.098-0.113-0.141-0.14C7.07,3.113,7.027,3.098,6.988,3.086
			C6.957,3.078,6.902,3.078,6.832,3.078H6.516v0.918H6.242z"/>
		<path clip-path="url(#SVGID_2_)" fill="#808080" d="M8.527,2.992c0,0.25,0.067,0.446,0.203,0.59
			c0.133,0.145,0.301,0.215,0.504,0.215c0.207,0,0.375-0.07,0.508-0.215C9.879,3.434,9.945,3.23,9.945,2.965
			c0-0.172-0.031-0.317-0.086-0.445c-0.058-0.125-0.14-0.223-0.25-0.29C9.5,2.16,9.375,2.125,9.238,2.125
			c-0.195,0-0.363,0.066-0.5,0.199C8.598,2.457,8.527,2.68,8.527,2.992z M8.246,2.988c0-0.343,0.09-0.613,0.277-0.808
			c0.184-0.196,0.422-0.293,0.715-0.293c0.192,0,0.364,0.047,0.52,0.136c0.152,0.094,0.269,0.219,0.347,0.383
			c0.083,0.164,0.122,0.352,0.122,0.559c0,0.211-0.039,0.398-0.125,0.562C10.016,3.695,9.895,3.82,9.738,3.906
			c-0.152,0.086-0.32,0.125-0.5,0.125c-0.195,0-0.371-0.047-0.523-0.14C8.559,3.797,8.441,3.668,8.363,3.504
			C8.285,3.34,8.246,3.168,8.246,2.988z"/>
		<polygon clip-path="url(#SVGID_2_)" fill="#808080" points="10.578,3.996 10.578,1.926 10.859,1.926 11.949,3.551 11.949,1.926 
			12.211,1.926 12.211,3.996 11.93,3.996 10.84,2.367 10.84,3.996 		"/>
		<path clip-path="url(#SVGID_2_)" fill="#808080" d="M2.543,6.66V6.414h0.879v0.77C3.285,7.293,3.145,7.371,3.004,7.426
			C2.859,7.48,2.711,7.508,2.562,7.508c-0.203,0-0.39-0.043-0.554-0.133C1.84,7.289,1.715,7.164,1.629,7
			C1.543,6.832,1.504,6.648,1.504,6.445c0-0.203,0.039-0.39,0.125-0.566c0.082-0.172,0.207-0.305,0.363-0.387
			c0.16-0.086,0.344-0.129,0.547-0.129c0.152,0,0.285,0.024,0.406,0.075C3.066,5.484,3.164,5.555,3.23,5.641
			C3.301,5.727,3.352,5.84,3.391,5.98l-0.25,0.067C3.109,5.941,3.07,5.859,3.027,5.797C2.98,5.738,2.914,5.691,2.828,5.652
			C2.742,5.617,2.645,5.598,2.543,5.598c-0.129,0-0.234,0.019-0.324,0.058C2.125,5.695,2.051,5.742,1.996,5.805
			C1.938,5.867,1.895,5.938,1.863,6.012C1.812,6.141,1.785,6.277,1.785,6.43c0,0.183,0.031,0.34,0.094,0.461
			C1.945,7.016,2.035,7.109,2.16,7.168c0.121,0.062,0.25,0.09,0.387,0.09c0.117,0,0.234-0.02,0.348-0.067
			c0.113-0.046,0.199-0.093,0.257-0.148V6.66H2.543z"/>
		<path clip-path="url(#SVGID_2_)" fill="#808080" d="M3.723,6.93l0.265-0.024c0.02,0.129,0.067,0.227,0.137,0.293
			c0.074,0.067,0.16,0.098,0.262,0.098c0.121,0,0.226-0.047,0.312-0.137c0.082-0.094,0.125-0.215,0.125-0.367
			c0-0.148-0.039-0.262-0.121-0.344C4.621,6.363,4.516,6.32,4.383,6.32c-0.082,0-0.156,0.02-0.223,0.059
			C4.094,6.414,4.043,6.465,4.004,6.523L3.766,6.492L3.969,5.43H5v0.242H4.172L4.059,6.227c0.125-0.086,0.253-0.129,0.394-0.129
			c0.18,0,0.332,0.062,0.457,0.187S5.098,6.57,5.098,6.77c0,0.187-0.055,0.351-0.164,0.484C4.801,7.422,4.617,7.508,4.387,7.508
			c-0.188,0-0.34-0.055-0.461-0.16C3.805,7.242,3.738,7.102,3.723,6.93z"/>
		<path clip-path="url(#SVGID_2_)" fill="#808080" d="M6.402,6.898c0.16,0.047,0.289,0.114,0.391,0.2
			C6.957,6.949,7.035,6.73,7.035,6.434c0-0.168-0.027-0.313-0.086-0.438c-0.054-0.129-0.14-0.226-0.25-0.293
			C6.59,5.633,6.465,5.598,6.332,5.598c-0.207,0-0.375,0.07-0.512,0.211c-0.132,0.14-0.199,0.347-0.199,0.625
			c0,0.269,0.067,0.476,0.199,0.621c0.133,0.144,0.301,0.218,0.512,0.218c0.098,0,0.188-0.019,0.277-0.054
			C6.523,7.164,6.43,7.121,6.336,7.098L6.402,6.898z M7.008,7.25C7.133,7.336,7.25,7.402,7.359,7.441L7.277,7.633
			C7.129,7.578,6.98,7.496,6.832,7.379C6.68,7.465,6.508,7.508,6.324,7.508c-0.187,0-0.359-0.047-0.512-0.137
			C5.66,7.281,5.543,7.156,5.461,6.988C5.379,6.824,5.336,6.641,5.336,6.434c0-0.204,0.043-0.391,0.125-0.559
			C5.543,5.711,5.66,5.582,5.812,5.492c0.157-0.086,0.329-0.129,0.516-0.129c0.192,0,0.363,0.043,0.52,0.137
			C7,5.59,7.117,5.719,7.199,5.879C7.277,6.043,7.32,6.23,7.32,6.434c0,0.171-0.027,0.324-0.078,0.461
			C7.188,7.031,7.109,7.148,7.008,7.25z"/>
		<rect x="7.555" y="6.594" clip-path="url(#SVGID_2_)" fill="#808080" width="0.785" height="0.258"/>
		<polygon clip-path="url(#SVGID_2_)" fill="#808080" points="8.656,7.473 8.656,5.398 10.156,5.398 10.156,5.645 8.934,5.645 
			8.934,6.277 10.078,6.277 10.078,6.523 8.934,6.523 8.934,7.23 10.203,7.23 10.203,7.473 		"/>
		<path clip-path="url(#SVGID_2_)" fill="#808080" d="M11.945,5.398h0.274v1.2c0,0.207-0.024,0.375-0.071,0.496
			c-0.046,0.121-0.132,0.222-0.253,0.301c-0.125,0.074-0.286,0.113-0.485,0.113c-0.195,0-0.355-0.035-0.476-0.102
			c-0.125-0.066-0.211-0.164-0.266-0.289S10.59,6.816,10.59,6.598v-1.2h0.273v1.2c0,0.179,0.016,0.312,0.051,0.394
			c0.031,0.086,0.09,0.153,0.172,0.199c0.082,0.047,0.18,0.071,0.301,0.071c0.199,0,0.343-0.047,0.429-0.137
			c0.086-0.094,0.129-0.27,0.129-0.527V5.398z"/>
		<path clip-path="url(#SVGID_2_)" fill="#808080" d="M2.426,10.949H2.172V9.328C2.113,9.387,2.031,9.441,1.934,9.5
			c-0.102,0.059-0.192,0.105-0.27,0.133V9.387C1.805,9.32,1.93,9.238,2.039,9.145c0.106-0.098,0.18-0.188,0.227-0.278H2.43v2.082
			H2.426z"/>
		<path clip-path="url(#SVGID_2_)" fill="#808080" d="M4.418,10.703v0.246H3.047c-0.004-0.062,0.008-0.121,0.027-0.179
			c0.035-0.094,0.094-0.184,0.168-0.274c0.078-0.09,0.188-0.195,0.336-0.316c0.223-0.184,0.375-0.332,0.457-0.438
			c0.078-0.109,0.117-0.211,0.117-0.308c0-0.098-0.035-0.184-0.109-0.254c-0.07-0.071-0.164-0.106-0.281-0.106
			c-0.121,0-0.223,0.039-0.293,0.114C3.395,9.262,3.355,9.363,3.355,9.492L3.094,9.465C3.109,9.27,3.18,9.121,3.297,9.02
			C3.41,8.918,3.57,8.867,3.766,8.867c0.199,0,0.355,0.055,0.472,0.164c0.117,0.11,0.172,0.246,0.172,0.41
			c0,0.082-0.015,0.164-0.047,0.247C4.328,9.766,4.27,9.852,4.191,9.938c-0.078,0.089-0.207,0.214-0.39,0.367
			c-0.153,0.129-0.25,0.215-0.293,0.261c-0.043,0.043-0.082,0.09-0.11,0.137H4.418z"/>
		<path clip-path="url(#SVGID_2_)" fill="#808080" d="M5.387,10.949L4.582,8.875h0.297l0.539,1.504
			c0.043,0.121,0.078,0.234,0.109,0.344c0.032-0.118,0.067-0.227,0.11-0.344l0.562-1.504h0.278l-0.809,2.074H5.387z"/>
		<path clip-path="url(#SVGID_2_)" fill="#808080" d="M7,10.703h0.441c0.137,0,0.247-0.012,0.321-0.039
			c0.078-0.023,0.14-0.059,0.187-0.105c0.063-0.067,0.117-0.153,0.153-0.262c0.035-0.113,0.054-0.246,0.054-0.402
			c0-0.215-0.035-0.383-0.109-0.5C7.977,9.281,7.891,9.203,7.789,9.16C7.715,9.133,7.598,9.121,7.434,9.121H7V10.703z M6.727,10.949
			V8.875h0.711c0.164,0,0.285,0.012,0.371,0.031C7.926,8.934,8.027,8.98,8.113,9.055c0.11,0.09,0.192,0.211,0.246,0.351
			C8.41,9.551,8.438,9.715,8.438,9.898c0,0.161-0.016,0.297-0.055,0.422c-0.035,0.118-0.082,0.219-0.141,0.301
			c-0.058,0.078-0.121,0.141-0.187,0.188c-0.071,0.046-0.153,0.082-0.25,0.101c-0.098,0.024-0.207,0.035-0.332,0.035H6.727V10.949z"
			/>
		<path clip-path="url(#SVGID_2_)" fill="#808080" d="M10.297,10.223l0.273,0.066c-0.058,0.227-0.16,0.399-0.312,0.516
			c-0.149,0.121-0.332,0.179-0.547,0.179c-0.223,0-0.406-0.046-0.543-0.136c-0.141-0.09-0.246-0.223-0.32-0.395
			c-0.075-0.172-0.11-0.359-0.11-0.555c0-0.218,0.039-0.406,0.125-0.566c0.082-0.16,0.199-0.285,0.352-0.367
			c0.152-0.082,0.32-0.125,0.5-0.125c0.207,0,0.383,0.055,0.523,0.16c0.141,0.105,0.242,0.254,0.297,0.445l-0.269,0.063
			c-0.047-0.149-0.118-0.262-0.211-0.328c-0.09-0.071-0.207-0.106-0.344-0.106c-0.16,0-0.293,0.039-0.402,0.117
			C9.203,9.266,9.129,9.371,9.086,9.5S9.02,9.762,9.02,9.898c0,0.176,0.023,0.329,0.078,0.461c0.05,0.129,0.129,0.231,0.238,0.293
			c0.109,0.067,0.226,0.098,0.352,0.098c0.152,0,0.285-0.043,0.39-0.133C10.184,10.527,10.258,10.395,10.297,10.223z"/>
		<path clip-path="url(#SVGID_2_)" fill="#808080" d="M10.84,17.543l0.273,0.07c-0.054,0.227-0.16,0.399-0.308,0.516
			c-0.149,0.117-0.332,0.18-0.547,0.18c-0.227,0-0.406-0.047-0.547-0.137c-0.141-0.094-0.246-0.223-0.32-0.395
			c-0.071-0.175-0.11-0.359-0.11-0.558c0-0.215,0.043-0.403,0.125-0.563c0.082-0.16,0.199-0.285,0.352-0.367
			c0.152-0.082,0.32-0.125,0.504-0.125c0.207,0,0.383,0.055,0.523,0.16c0.141,0.106,0.238,0.25,0.293,0.446l-0.269,0.062
			c-0.047-0.152-0.118-0.262-0.207-0.328c-0.094-0.07-0.207-0.106-0.348-0.106c-0.156,0-0.293,0.04-0.399,0.114
			c-0.109,0.078-0.183,0.179-0.226,0.308c-0.043,0.129-0.067,0.262-0.067,0.399c0,0.176,0.028,0.332,0.079,0.461
			c0.05,0.133,0.132,0.23,0.238,0.297c0.109,0.062,0.226,0.097,0.355,0.097c0.153,0,0.282-0.047,0.391-0.133
			C10.73,17.852,10.801,17.719,10.84,17.543z"/>
		<polygon clip-path="url(#SVGID_2_)" fill="#808080" points="11.461,18.27 11.461,16.199 11.734,16.199 11.734,17.047 
			12.812,17.047 12.812,16.199 13.09,16.199 13.09,18.27 12.812,18.27 12.812,17.293 11.734,17.293 11.734,18.27 		"/>
		<rect x="13.59" y="16.199" clip-path="url(#SVGID_2_)" fill="#808080" width="0.273" height="2.071"/>
		<polygon clip-path="url(#SVGID_2_)" fill="#808080" points="14.348,18.27 14.348,16.199 14.629,16.199 15.719,17.824 
			15.719,16.199 15.98,16.199 15.98,18.27 15.699,18.27 14.609,16.641 14.609,18.27 		"/>
		<path clip-path="url(#SVGID_2_)" fill="#808080" d="M16.809,17.422h0.703l-0.215-0.574c-0.067-0.176-0.117-0.321-0.149-0.434
			c-0.023,0.133-0.062,0.266-0.109,0.399L16.809,17.422z M16.211,18.27l0.797-2.071h0.297l0.847,2.071H17.84l-0.242-0.625H16.73
			l-0.226,0.625H16.211z"/>
		<path clip-path="url(#SVGID_2_)" fill="#808080" d="M9.141,21.504v0.242H7.77c0-0.058,0.007-0.117,0.031-0.176
			c0.035-0.093,0.09-0.183,0.168-0.277c0.074-0.09,0.187-0.195,0.332-0.313c0.226-0.183,0.379-0.332,0.457-0.441
			c0.078-0.105,0.117-0.207,0.117-0.305c0-0.101-0.035-0.187-0.105-0.254c-0.075-0.07-0.168-0.105-0.286-0.105
			c-0.121,0-0.218,0.035-0.293,0.113c-0.074,0.071-0.109,0.172-0.113,0.305l-0.262-0.027c0.02-0.196,0.086-0.344,0.204-0.446
			c0.117-0.105,0.273-0.156,0.472-0.156c0.199,0,0.356,0.055,0.469,0.168c0.117,0.109,0.176,0.246,0.176,0.41
			c0,0.082-0.016,0.164-0.051,0.242c-0.035,0.082-0.09,0.168-0.168,0.254c-0.078,0.09-0.211,0.211-0.395,0.364
			c-0.152,0.128-0.25,0.218-0.293,0.261c-0.042,0.047-0.078,0.094-0.109,0.141H9.141z"/>
		<path clip-path="url(#SVGID_2_)" fill="#808080" d="M9.414,21.199l0.254-0.035c0.031,0.145,0.082,0.25,0.152,0.313
			c0.071,0.066,0.157,0.097,0.254,0.097c0.121,0,0.223-0.043,0.305-0.125s0.125-0.187,0.125-0.308c0-0.118-0.039-0.215-0.113-0.289
			c-0.079-0.079-0.176-0.114-0.293-0.114c-0.047,0-0.11,0.008-0.18,0.028l0.027-0.223c0.02,0,0.032,0.004,0.043,0.004
			c0.106,0,0.203-0.031,0.293-0.086c0.086-0.059,0.129-0.145,0.129-0.262c0-0.094-0.031-0.172-0.094-0.23
			c-0.062-0.063-0.144-0.094-0.246-0.094c-0.097,0-0.179,0.031-0.246,0.094c-0.066,0.062-0.109,0.156-0.129,0.281l-0.254-0.047
			c0.032-0.172,0.102-0.305,0.211-0.398c0.11-0.094,0.246-0.141,0.41-0.141c0.114,0,0.219,0.027,0.313,0.074
			c0.098,0.051,0.168,0.117,0.219,0.2c0.051,0.082,0.078,0.171,0.078,0.265c0,0.09-0.024,0.172-0.074,0.246
			c-0.047,0.074-0.118,0.133-0.211,0.176c0.121,0.027,0.215,0.086,0.285,0.176c0.066,0.09,0.101,0.199,0.101,0.336
			c0,0.179-0.066,0.332-0.199,0.457c-0.133,0.129-0.301,0.191-0.5,0.191c-0.183,0-0.332-0.055-0.453-0.164
			S9.434,21.371,9.414,21.199z"/>
		<path clip-path="url(#SVGID_2_)" fill="#808080" d="M11.305,21.074c0,0.09,0.019,0.172,0.058,0.254
			c0.035,0.078,0.09,0.141,0.157,0.18c0.066,0.043,0.136,0.062,0.207,0.062c0.109,0,0.203-0.043,0.277-0.129
			c0.078-0.086,0.117-0.203,0.117-0.351c0-0.145-0.039-0.258-0.113-0.34c-0.078-0.082-0.172-0.125-0.289-0.125
			c-0.117,0-0.215,0.043-0.293,0.125C11.344,20.832,11.305,20.941,11.305,21.074z M12.344,20.18l-0.25,0.023
			c-0.024-0.101-0.055-0.176-0.098-0.219c-0.07-0.074-0.152-0.109-0.254-0.109c-0.082,0-0.152,0.023-0.215,0.066
			c-0.078,0.059-0.14,0.145-0.187,0.258c-0.047,0.114-0.07,0.27-0.074,0.481c0.062-0.094,0.136-0.164,0.226-0.211
			c0.086-0.043,0.18-0.067,0.278-0.067c0.168,0,0.316,0.063,0.433,0.188c0.121,0.125,0.18,0.285,0.18,0.484
			c0,0.129-0.028,0.25-0.086,0.364c-0.055,0.109-0.133,0.195-0.231,0.253c-0.097,0.059-0.207,0.09-0.332,0.09
			c-0.211,0-0.386-0.078-0.519-0.234c-0.133-0.156-0.199-0.414-0.199-0.774c0-0.398,0.074-0.687,0.218-0.871
			c0.133-0.16,0.305-0.238,0.524-0.238c0.164,0,0.297,0.047,0.402,0.137C12.262,19.891,12.324,20.02,12.344,20.18z"/>
		<path clip-path="url(#SVGID_2_)" fill="#808080" d="M12.895,20.727c0,0.339,0.043,0.566,0.121,0.679
			c0.078,0.114,0.179,0.168,0.293,0.168c0.117,0,0.218-0.054,0.296-0.172c0.083-0.113,0.122-0.336,0.122-0.675
			c0-0.344-0.043-0.571-0.122-0.684c-0.078-0.109-0.179-0.168-0.296-0.168c-0.118,0-0.211,0.051-0.282,0.148
			C12.941,20.152,12.895,20.387,12.895,20.727z M12.633,20.727c0-0.247,0.027-0.446,0.078-0.594
			c0.051-0.149,0.125-0.266,0.223-0.344c0.101-0.082,0.226-0.121,0.375-0.121c0.113,0,0.211,0.02,0.293,0.066
			c0.086,0.043,0.156,0.11,0.207,0.192c0.054,0.086,0.097,0.187,0.129,0.308c0.031,0.121,0.046,0.286,0.046,0.493
			c0,0.242-0.023,0.437-0.074,0.586c-0.051,0.152-0.125,0.265-0.222,0.347c-0.102,0.082-0.227,0.121-0.379,0.121
			c-0.2,0-0.356-0.07-0.469-0.215C12.703,21.395,12.633,21.113,12.633,20.727z"/>
		<path clip-path="url(#SVGID_2_)" fill="#808080" d="M14.934,21.746v-0.879l-0.801-1.191h0.336l0.406,0.625
			c0.078,0.113,0.148,0.23,0.211,0.347c0.062-0.105,0.141-0.23,0.226-0.363l0.403-0.609h0.32l-0.828,1.191v0.879H14.934z"/>
		<path clip-path="url(#SVGID_2_)" fill="#808080" d="M17.758,21.02l0.277,0.07c-0.058,0.226-0.164,0.398-0.312,0.515
			c-0.149,0.118-0.332,0.176-0.547,0.176c-0.223,0-0.406-0.043-0.547-0.133c-0.137-0.093-0.246-0.222-0.317-0.394
			c-0.074-0.176-0.109-0.359-0.109-0.559c0-0.215,0.039-0.402,0.121-0.562c0.082-0.16,0.203-0.285,0.352-0.367
			c0.152-0.086,0.32-0.125,0.504-0.125c0.207,0,0.382,0.05,0.523,0.156c0.141,0.105,0.238,0.254,0.297,0.445l-0.27,0.067
			c-0.05-0.153-0.121-0.262-0.21-0.332c-0.094-0.067-0.208-0.102-0.344-0.102c-0.16,0-0.293,0.039-0.403,0.113
			c-0.105,0.078-0.179,0.18-0.226,0.309c-0.043,0.129-0.063,0.262-0.063,0.398c0,0.176,0.024,0.332,0.078,0.461
			c0.051,0.133,0.129,0.231,0.239,0.297c0.109,0.063,0.226,0.098,0.351,0.098c0.153,0,0.282-0.047,0.391-0.133
			C17.648,21.328,17.723,21.195,17.758,21.02z"/>
		<path clip-path="url(#SVGID_2_)" fill="#808080" d="M29.488,17.73l0.266-0.023c0.02,0.129,0.066,0.227,0.137,0.293
			c0.074,0.066,0.16,0.098,0.262,0.098c0.121,0,0.227-0.047,0.312-0.137c0.082-0.094,0.125-0.219,0.125-0.371
			c0-0.145-0.039-0.258-0.121-0.344c-0.082-0.082-0.188-0.125-0.32-0.125c-0.082,0-0.156,0.02-0.223,0.055
			c-0.062,0.039-0.117,0.086-0.156,0.148l-0.238-0.031l0.203-1.066h1.031v0.242h-0.827l-0.114,0.558
			c0.125-0.086,0.254-0.129,0.391-0.129c0.184,0,0.336,0.063,0.457,0.188c0.125,0.125,0.188,0.285,0.188,0.48
			c0,0.192-0.055,0.352-0.164,0.489c-0.134,0.168-0.312,0.25-0.543,0.25c-0.188,0-0.344-0.051-0.461-0.157
			C29.57,18.043,29.504,17.902,29.488,17.73z"/>
		<path clip-path="url(#SVGID_2_)" fill="#808080" d="M31.57,17.422h0.703l-0.215-0.574c-0.066-0.176-0.117-0.321-0.148-0.434
			c-0.027,0.133-0.062,0.266-0.113,0.399L31.57,17.422z M30.973,18.27l0.797-2.071h0.292l0.853,2.071h-0.312l-0.242-0.625h-0.867
			l-0.227,0.625H30.973z"/>
		<path clip-path="url(#SVGID_2_)" fill="#808080" d="M33.031,17.727l0.254-0.036c0.026,0.145,0.078,0.247,0.148,0.313
			c0.07,0.062,0.156,0.094,0.258,0.094c0.117,0,0.219-0.043,0.301-0.125c0.086-0.082,0.125-0.184,0.125-0.309
			c0-0.117-0.039-0.211-0.113-0.289c-0.078-0.074-0.176-0.113-0.293-0.113c-0.047,0-0.109,0.011-0.18,0.027l0.027-0.223
			c0.02,0.004,0.031,0.004,0.043,0.004c0.105,0,0.207-0.027,0.293-0.086c0.086-0.054,0.129-0.144,0.129-0.261
			c0-0.09-0.031-0.168-0.094-0.231c-0.062-0.062-0.148-0.09-0.246-0.09s-0.184,0.028-0.245,0.09c-0.067,0.063-0.11,0.156-0.13,0.281
			l-0.254-0.046c0.031-0.168,0.102-0.301,0.211-0.395c0.113-0.094,0.25-0.141,0.414-0.141c0.113,0,0.215,0.024,0.312,0.075
			c0.098,0.047,0.168,0.113,0.219,0.195c0.051,0.086,0.074,0.176,0.074,0.269c0,0.09-0.023,0.172-0.07,0.243
			c-0.051,0.074-0.121,0.132-0.215,0.179c0.121,0.028,0.219,0.086,0.285,0.176c0.066,0.086,0.102,0.199,0.102,0.332
			c0,0.184-0.066,0.336-0.198,0.461c-0.13,0.125-0.298,0.188-0.5,0.188c-0.185,0-0.333-0.051-0.454-0.161
			C33.113,18.039,33.047,17.898,33.031,17.727z"/>
		<path clip-path="url(#SVGID_2_)" fill="#808080" d="M34.902,17.25c0,0.34,0.039,0.566,0.117,0.68
			c0.078,0.113,0.18,0.168,0.297,0.168s0.215-0.055,0.293-0.168c0.079-0.117,0.121-0.34,0.121-0.68c0-0.344-0.042-0.57-0.121-0.68
			c-0.078-0.113-0.18-0.172-0.298-0.172c-0.116,0-0.21,0.051-0.28,0.149C34.945,16.676,34.902,16.91,34.902,17.25z M34.641,17.25
			c0-0.246,0.023-0.445,0.074-0.594c0.051-0.148,0.125-0.261,0.227-0.343c0.098-0.083,0.223-0.122,0.375-0.122
			c0.109,0,0.207,0.02,0.293,0.067c0.082,0.043,0.152,0.109,0.207,0.195c0.055,0.082,0.098,0.184,0.129,0.305
			c0.031,0.121,0.047,0.285,0.047,0.492c0,0.242-0.027,0.438-0.074,0.586c-0.051,0.152-0.125,0.266-0.227,0.348
			c-0.098,0.082-0.223,0.121-0.375,0.121c-0.199,0-0.355-0.071-0.473-0.215C34.707,17.918,34.641,17.637,34.641,17.25z"/>
		<path clip-path="url(#SVGID_2_)" fill="#808080" d="M36.945,18.27l-0.805-2.071h0.298l0.538,1.504
			c0.047,0.121,0.082,0.235,0.113,0.34c0.031-0.113,0.066-0.227,0.109-0.34l0.559-1.504h0.281l-0.812,2.071H36.945z"/>
		<path clip-path="url(#SVGID_2_)" fill="#808080" d="M38.559,18.027H39c0.137,0,0.246-0.011,0.324-0.039
			c0.078-0.023,0.141-0.058,0.184-0.109c0.066-0.063,0.117-0.149,0.152-0.258c0.035-0.113,0.055-0.246,0.055-0.402
			c0-0.215-0.035-0.383-0.105-0.5c-0.074-0.117-0.16-0.192-0.262-0.235c-0.074-0.027-0.191-0.043-0.355-0.043h-0.434V18.027z
			 M38.285,18.27v-2.071H39c0.16,0,0.281,0.008,0.367,0.028c0.121,0.027,0.219,0.078,0.305,0.148
			c0.109,0.094,0.191,0.211,0.246,0.355C39.973,16.875,40,17.039,40,17.223c0,0.156-0.02,0.297-0.055,0.418
			c-0.039,0.121-0.086,0.222-0.145,0.3c-0.055,0.082-0.117,0.145-0.188,0.192c-0.066,0.043-0.148,0.078-0.246,0.101
			c-0.098,0.024-0.207,0.036-0.332,0.036H38.285z"/>
		<path clip-path="url(#SVGID_2_)" fill="#808080" d="M41.855,17.543l0.273,0.07c-0.059,0.227-0.16,0.399-0.309,0.516
			c-0.152,0.117-0.332,0.18-0.551,0.18c-0.223,0-0.406-0.047-0.543-0.137c-0.141-0.094-0.25-0.223-0.32-0.395
			c-0.074-0.175-0.109-0.359-0.109-0.558c0-0.215,0.039-0.403,0.121-0.563c0.086-0.16,0.203-0.285,0.352-0.367
			c0.152-0.082,0.32-0.125,0.504-0.125c0.207,0,0.383,0.055,0.523,0.16c0.142,0.106,0.242,0.25,0.297,0.446l-0.27,0.062
			c-0.051-0.152-0.121-0.262-0.211-0.328c-0.094-0.07-0.207-0.106-0.344-0.106c-0.16,0-0.293,0.04-0.402,0.114
			c-0.105,0.078-0.179,0.179-0.223,0.308c-0.047,0.129-0.066,0.262-0.066,0.399c0,0.176,0.023,0.332,0.078,0.461
			c0.051,0.133,0.129,0.23,0.238,0.297c0.109,0.062,0.227,0.097,0.352,0.097c0.152,0,0.285-0.047,0.391-0.133
			C41.746,17.852,41.816,17.719,41.855,17.543z"/>
		<path clip-path="url(#SVGID_2_)" fill="#808080" d="M27.383,21.746h-0.254v-1.621c-0.062,0.059-0.141,0.117-0.242,0.176
			c-0.098,0.058-0.188,0.101-0.266,0.133v-0.246c0.141-0.067,0.266-0.149,0.371-0.247c0.109-0.093,0.184-0.187,0.227-0.277h0.164
			V21.746z"/>
		<path clip-path="url(#SVGID_2_)" fill="#808080" d="M28.297,20.727c0,0.339,0.039,0.566,0.117,0.679
			c0.082,0.114,0.18,0.168,0.297,0.168s0.215-0.054,0.293-0.172c0.082-0.113,0.121-0.336,0.121-0.675
			c0-0.344-0.039-0.571-0.121-0.684c-0.078-0.109-0.176-0.168-0.297-0.168c-0.117,0-0.211,0.051-0.281,0.148
			C28.34,20.152,28.297,20.387,28.297,20.727z M28.035,20.727c0-0.247,0.026-0.446,0.074-0.594c0.051-0.149,0.125-0.266,0.227-0.344
			c0.103-0.082,0.226-0.121,0.375-0.121c0.113,0,0.211,0.02,0.293,0.066c0.082,0.043,0.152,0.11,0.207,0.192
			c0.055,0.086,0.098,0.187,0.129,0.308c0.031,0.121,0.047,0.286,0.047,0.493c0,0.242-0.023,0.437-0.075,0.586
			c-0.05,0.152-0.123,0.265-0.222,0.347c-0.102,0.082-0.227,0.121-0.379,0.121c-0.199,0-0.355-0.07-0.469-0.215
			C28.105,21.395,28.035,21.113,28.035,20.727z"/>
		<path clip-path="url(#SVGID_2_)" fill="#808080" d="M30.121,20.895h0.703l-0.219-0.571c-0.066-0.176-0.117-0.32-0.148-0.433
			c-0.023,0.132-0.062,0.265-0.113,0.398L30.121,20.895z M29.523,21.746l0.793-2.07h0.297l0.848,2.07h-0.312l-0.242-0.625h-0.867
			l-0.228,0.625H29.523z"/>
		<path clip-path="url(#SVGID_2_)" fill="#808080" d="M32.914,21.504v0.242h-1.367c-0.004-0.058,0.008-0.117,0.027-0.176
			c0.035-0.093,0.09-0.183,0.168-0.277c0.078-0.09,0.188-0.195,0.332-0.313c0.227-0.183,0.379-0.332,0.457-0.441
			c0.078-0.105,0.121-0.207,0.121-0.305c0-0.101-0.039-0.187-0.109-0.254c-0.074-0.07-0.168-0.105-0.281-0.105
			c-0.125,0-0.223,0.035-0.297,0.113c-0.074,0.071-0.109,0.172-0.109,0.305l-0.262-0.027c0.016-0.196,0.082-0.344,0.199-0.446
			c0.117-0.105,0.273-0.156,0.473-0.156s0.355,0.055,0.473,0.168c0.117,0.109,0.172,0.246,0.172,0.41
			c0,0.082-0.016,0.164-0.047,0.242c-0.035,0.082-0.09,0.168-0.172,0.254c-0.078,0.09-0.211,0.211-0.391,0.364
			c-0.152,0.128-0.25,0.218-0.293,0.261c-0.047,0.047-0.082,0.094-0.109,0.141H32.914z"/>
		<path clip-path="url(#SVGID_2_)" fill="#808080" d="M33.188,21.203l0.269-0.023c0.016,0.133,0.062,0.23,0.137,0.297
			c0.07,0.062,0.16,0.097,0.262,0.097c0.121,0,0.223-0.047,0.309-0.14c0.086-0.09,0.129-0.215,0.129-0.368
			c0-0.144-0.043-0.257-0.121-0.343c-0.082-0.082-0.191-0.125-0.32-0.125c-0.082,0-0.156,0.015-0.223,0.054
			c-0.067,0.039-0.117,0.086-0.156,0.145l-0.238-0.031l0.199-1.063h1.031v0.242h-0.828l-0.109,0.559
			c0.125-0.09,0.254-0.133,0.391-0.133c0.18,0,0.336,0.063,0.457,0.188c0.125,0.129,0.187,0.289,0.187,0.484
			c0,0.187-0.054,0.352-0.163,0.488c-0.133,0.168-0.312,0.25-0.543,0.25c-0.191,0-0.344-0.051-0.465-0.156
			C33.273,21.52,33.203,21.379,33.188,21.203z"/>
		<path clip-path="url(#SVGID_2_)" fill="#808080" d="M35.062,20.727c0,0.339,0.04,0.566,0.118,0.679
			c0.078,0.114,0.18,0.168,0.293,0.168c0.117,0,0.219-0.054,0.297-0.172c0.078-0.113,0.117-0.336,0.117-0.675
			c0-0.344-0.039-0.571-0.117-0.684c-0.078-0.109-0.18-0.168-0.297-0.168s-0.211,0.051-0.281,0.148
			C35.105,20.152,35.062,20.387,35.062,20.727z M34.801,20.727c0-0.247,0.023-0.446,0.074-0.594
			c0.051-0.149,0.125-0.266,0.227-0.344c0.098-0.082,0.223-0.121,0.375-0.121c0.109,0,0.207,0.02,0.289,0.066
			c0.086,0.043,0.156,0.11,0.211,0.192c0.055,0.086,0.098,0.187,0.129,0.308c0.031,0.121,0.047,0.286,0.047,0.493
			c0,0.242-0.027,0.437-0.074,0.586c-0.051,0.152-0.125,0.265-0.227,0.347c-0.098,0.082-0.223,0.121-0.375,0.121
			c-0.203,0-0.355-0.07-0.473-0.215C34.867,21.395,34.801,21.113,34.801,20.727z"/>
		<path clip-path="url(#SVGID_2_)" fill="#808080" d="M37.105,21.746l-0.805-2.07h0.297l0.539,1.504
			c0.043,0.121,0.082,0.234,0.109,0.34c0.031-0.114,0.07-0.227,0.113-0.34l0.559-1.504h0.281l-0.812,2.07H37.105z"/>
		<path clip-path="url(#SVGID_2_)" fill="#808080" d="M38.602,20.895h0.703l-0.219-0.571c-0.066-0.176-0.113-0.32-0.147-0.433
			c-0.024,0.132-0.063,0.265-0.11,0.398L38.602,20.895z M38,21.746l0.797-2.07h0.297l0.848,2.07h-0.312l-0.242-0.625H38.52
			l-0.227,0.625H38z"/>
		<path clip-path="url(#SVGID_2_)" fill="#808080" d="M41.641,21.02l0.273,0.07c-0.055,0.226-0.16,0.398-0.309,0.515
			c-0.152,0.118-0.332,0.176-0.551,0.176c-0.223,0-0.402-0.043-0.543-0.133c-0.141-0.093-0.25-0.222-0.32-0.394
			c-0.07-0.176-0.109-0.359-0.109-0.559c0-0.215,0.043-0.402,0.121-0.562c0.086-0.16,0.203-0.285,0.355-0.367
			c0.148-0.086,0.316-0.125,0.5-0.125c0.207,0,0.383,0.05,0.523,0.156c0.141,0.105,0.242,0.254,0.297,0.445l-0.27,0.067
			c-0.051-0.153-0.121-0.262-0.211-0.332c-0.094-0.067-0.207-0.102-0.344-0.102c-0.16,0-0.293,0.039-0.402,0.113
			c-0.105,0.078-0.18,0.18-0.223,0.309c-0.043,0.129-0.066,0.262-0.066,0.398c0,0.176,0.027,0.332,0.078,0.461
			c0.051,0.133,0.129,0.231,0.238,0.297c0.109,0.063,0.227,0.098,0.352,0.098c0.157,0,0.285-0.047,0.391-0.133
			C41.531,21.328,41.602,21.195,41.641,21.02z"/>
		
			<polyline clip-path="url(#SVGID_2_)" fill="none" stroke="#808080" stroke-width="0.6" stroke-linecap="round" stroke-linejoin="round" stroke-miterlimit="10" points="
			33.055,11.016 33.055,14.324 31.32,14.324 31.32,11.016 29.426,11.016 29.426,12.426 31.238,12.426 29.426,14.324 		"/>
		
			<path clip-path="url(#SVGID_2_)" fill="none" stroke="#808080" stroke-width="0.24" stroke-linecap="round" stroke-linejoin="round" stroke-miterlimit="10" d="
			M36.375,14.039c-0.148,0.164-0.086,0.297,0.133,0.297h7.445c0.219,0,0.281-0.133,0.133-0.297L40.5,10.055
			c-0.148-0.164-0.387-0.164-0.535,0L36.375,14.039z"/>
		<g clip-path="url(#SVGID_2_)">
			<path fill="#808080" d="M37.678,12.38h1.266v1.773h-1.266V12.38z M37.805,13.913l0.43-0.646l-0.43-0.646V13.913z M38.74,12.507
				h-0.859l0.43,0.646L38.74,12.507z M38.74,14.027l-0.43-0.646l-0.43,0.646H38.74z M38.816,13.913v-1.292l-0.43,0.646
				L38.816,13.913z"/>
			<path fill="#808080" d="M38.947,12.38h1.266v1.773h-1.266V12.38z M39.074,13.913l0.43-0.646l-0.43-0.646V13.913z M40.01,12.507
				H39.15l0.43,0.646L40.01,12.507z M40.01,14.027l-0.43-0.646l-0.43,0.646H40.01z M40.086,13.913v-1.292l-0.43,0.646L40.086,13.913
				z"/>
			<path fill="#808080" d="M40.217,12.38h1.266v1.773h-1.266V12.38z M40.344,13.913l0.43-0.646l-0.43-0.646V13.913z M41.279,12.507
				H40.42l0.43,0.646L41.279,12.507z M41.279,14.027l-0.43-0.646l-0.43,0.646H41.279z M41.355,13.913v-1.292l-0.43,0.646
				L41.355,13.913z"/>
		</g>
		
			<line clip-path="url(#SVGID_2_)" fill="none" stroke="#808080" stroke-width="0.24" stroke-linecap="round" stroke-linejoin="round" stroke-miterlimit="10" x1="42.816" y1="16.703" x2="44.617" y2="16.703"/>
		
			<line clip-path="url(#SVGID_2_)" fill="none" stroke="#808080" stroke-width="0.24" stroke-linecap="round" stroke-linejoin="round" stroke-miterlimit="10" x1="43.984" y1="17.562" x2="44.617" y2="17.562"/>
		
			<line clip-path="url(#SVGID_2_)" fill="none" stroke="#808080" stroke-width="0.24" stroke-linecap="round" stroke-linejoin="round" stroke-miterlimit="10" x1="42.816" y1="17.562" x2="43.434" y2="17.562"/>
		
			<path clip-path="url(#SVGID_2_)" fill="none" stroke="#808080" stroke-width="0.24" stroke-linecap="round" stroke-linejoin="round" stroke-miterlimit="10" d="
			M42.668,20.871c0,0,0.133-0.449,0.496-0.449c0.367,0,0.469,0.84,0.844,0.84s0.406-0.418,0.406-0.418"/>
		<defs>
			<filter id="Adobe_OpacityMaskFilter" filterUnits="userSpaceOnUse" x="0" y="0" width="46.541" height="50.64">
				<feColorMatrix  type="matrix" values="1 0 0 0 0  0 1 0 0 0  0 0 1 0 0  0 0 0 1 0"/>
			</filter>
		</defs>
		<mask maskUnits="userSpaceOnUse" x="0" y="0" width="46.541" height="50.64" id="SVGID_3_">
			<g filter="url(#Adobe_OpacityMaskFilter)">
				<rect opacity="0.2" clip-path="url(#SVGID_2_)" width="46.541" height="50.64"/>
			</g>
		</mask>
		<g clip-path="url(#SVGID_2_)" mask="url(#SVGID_3_)">
			<g>
				<defs>
					<rect id="SVGID_4_" width="46.541" height="50.64"/>
				</defs>
				<clipPath id="SVGID_5_">
					<use xlink:href="#SVGID_4_"  overflow="visible"/>
				</clipPath>
				<pattern  id="SVGID_6_" xlink:href="#Unnamed_Pattern" patternTransform="matrix(1 0 0 -1 0 -101.6406)">
				</pattern>
				<rect clip-path="url(#SVGID_5_)" fill="url(#SVGID_6_)" width="46.541" height="50.64"/>
			</g>
		</g>
		<defs>
			<filter id="Adobe_OpacityMaskFilter_1_" filterUnits="userSpaceOnUse" x="0" y="0" width="46.541" height="50.64">
				<feColorMatrix  type="matrix" values="1 0 0 0 0  0 1 0 0 0  0 0 1 0 0  0 0 0 1 0"/>
			</filter>
		</defs>
		<mask maskUnits="userSpaceOnUse" x="0" y="0" width="46.541" height="50.64" id="SVGID_7_">
			<g filter="url(#Adobe_OpacityMaskFilter_1_)">
				<rect opacity="0.75" clip-path="url(#SVGID_2_)" width="46.541" height="50.64"/>
			</g>
		</mask>
		<g clip-path="url(#SVGID_2_)" mask="url(#SVGID_7_)">
			<g>
				<defs>
					<rect id="SVGID_8_" width="46.541" height="50.64"/>
				</defs>
				<clipPath id="SVGID_9_">
					<use xlink:href="#SVGID_8_"  overflow="visible"/>
				</clipPath>
				<pattern  id="SVGID_10_" xlink:href="#Unnamed_Pattern_1" patternTransform="matrix(1 0 0 -1 0 -101.6406)">
				</pattern>
				<rect clip-path="url(#SVGID_9_)" fill="url(#SVGID_10_)" width="46.541" height="50.64"/>
			</g>
		</g>
		<defs>
			<filter id="Adobe_OpacityMaskFilter_2_" filterUnits="userSpaceOnUse" x="0" y="0" width="46.541" height="50.64">
				<feColorMatrix  type="matrix" values="1 0 0 0 0  0 1 0 0 0  0 0 1 0 0  0 0 0 1 0"/>
			</filter>
		</defs>
		<mask maskUnits="userSpaceOnUse" x="0" y="0" width="46.541" height="50.64" id="SVGID_11_">
			<g filter="url(#Adobe_OpacityMaskFilter_2_)">
				<rect opacity="0.75" clip-path="url(#SVGID_2_)" width="46.541" height="50.64"/>
			</g>
		</mask>
		<g clip-path="url(#SVGID_2_)" mask="url(#SVGID_11_)">
			<g>
				<defs>
					<rect id="SVGID_12_" width="46.541" height="50.64"/>
				</defs>
				<clipPath id="SVGID_13_">
					<use xlink:href="#SVGID_12_"  overflow="visible"/>
				</clipPath>
				<pattern  id="SVGID_14_" xlink:href="#Unnamed_Pattern_2" patternTransform="matrix(1 0 0 -1 0 -101.6406)">
				</pattern>
				<rect clip-path="url(#SVGID_13_)" fill="url(#SVGID_14_)" width="46.541" height="50.64"/>
			</g>
		</g>
	</g>
</g>
<g id="Layer_2">
	<rect x="1.166" y="0.642" width="17.417" height="22.167"/>
	<rect x="28.082" y="9.225" width="17.75" height="13.583"/>
	<rect x="22.832" y="18.142" width="15.657" height="4.667"/>
</g>
<g id="Layer_3">
	<g>
		<path fill="#FFFFFF" d="M2.816,4.331v1.733c0,0.192-0.084,0.3-0.3,0.3s-0.3-0.108-0.3-0.3V1.998c0-0.192,0.084-0.3,0.3-0.3
			s0.3,0.108,0.3,0.3v1.733H4.58V1.998c0-0.192,0.084-0.3,0.3-0.3s0.3,0.108,0.3,0.3v4.066c0,0.192-0.084,0.3-0.3,0.3
			s-0.3-0.108-0.3-0.3V4.331H2.816z"/>
		<path fill="#FFFFFF" d="M7.712,2.004C7.76,1.842,7.826,1.698,8.018,1.698c0.198,0,0.27,0.15,0.312,0.306l1.157,4.06
			c0.042,0.144-0.12,0.3-0.288,0.3c-0.186,0-0.282-0.156-0.324-0.3l-0.222-0.72H7.376l-0.228,0.72c-0.042,0.144-0.138,0.3-0.324,0.3
			c-0.168,0-0.33-0.156-0.288-0.3L7.712,2.004z M8.024,3.119H8.012L7.544,4.744h0.941L8.024,3.119z"/>
		<path fill="#FFFFFF" d="M13.609,5.188c0.12,0.156,0.21,0.294,0.21,0.498c0,0.45-0.342,0.678-0.756,0.678h-1.319
			c-0.228,0-0.426-0.042-0.605-0.192c-0.162-0.132-0.282-0.348-0.282-0.558c0-0.192,0.108-0.36,0.318-0.36
			c0.174,0,0.282,0.144,0.282,0.306c0,0.18,0.096,0.204,0.264,0.204h1.301c0.048,0,0.198,0.018,0.198-0.072
			c0-0.048-0.084-0.138-0.108-0.174l-2.057-2.645c-0.126-0.162-0.198-0.282-0.198-0.492c0-0.24,0.114-0.444,0.318-0.576
			c0.168-0.108,0.306-0.108,0.498-0.108h1.271c0.228,0,0.419,0.048,0.594,0.198c0.156,0.138,0.282,0.36,0.282,0.57
			c0,0.192-0.096,0.348-0.312,0.348c-0.18,0-0.288-0.114-0.288-0.282c0-0.204-0.102-0.234-0.288-0.234H11.66
			c-0.066,0-0.204-0.018-0.204,0.084c0,0.054,0.066,0.126,0.09,0.162L13.609,5.188z"/>
		<path fill="#FFFFFF" d="M16.79,6.363c-0.45,0-0.708-0.18-0.899-0.57l-0.552-1.115c-0.102-0.204-0.162-0.396-0.162-0.63
			c0-0.264,0.048-0.426,0.168-0.666l0.552-1.109C16.1,1.86,16.358,1.698,16.82,1.698h1.02c0.132,0,0.3,0.072,0.3,0.3
			c0,0.216-0.162,0.3-0.3,0.3h-1.001c-0.258,0-0.3,0.024-0.414,0.252l-0.521,1.043c-0.078,0.162-0.126,0.27-0.126,0.456
			c0,0.168,0.054,0.27,0.126,0.414l0.51,1.037c0.12,0.246,0.18,0.264,0.45,0.264h0.978c0.132,0,0.3,0.072,0.3,0.3
			c0,0.216-0.162,0.3-0.3,0.3H16.79z"/>
		<path fill="#FFFFFF" d="M22.303,3.383c0.114,0.234,0.156,0.408,0.156,0.666c0,0.288-0.078,0.468-0.198,0.714l-0.551,1.104
			c-0.144,0.288-0.384,0.498-0.732,0.498c-0.348,0-0.587-0.21-0.731-0.498l-0.552-1.104c-0.12-0.246-0.198-0.426-0.198-0.714
			c0-0.258,0.042-0.432,0.156-0.666l0.6-1.193c0.144-0.282,0.39-0.492,0.726-0.492s0.582,0.21,0.726,0.492L22.303,3.383z
			 M21.182,2.478c-0.048-0.096-0.078-0.18-0.204-0.18s-0.156,0.084-0.204,0.18l-0.54,1.085c-0.09,0.174-0.138,0.288-0.138,0.485
			c0,0.156,0.036,0.264,0.102,0.396l0.576,1.139c0.042,0.084,0.084,0.18,0.204,0.18c0.12,0,0.162-0.096,0.204-0.18l0.576-1.139
			c0.066-0.132,0.102-0.24,0.102-0.396c0-0.198-0.048-0.312-0.138-0.485L21.182,2.478z"/>
	</g>
</g>
<g id="Layer_3_copy">
	<g>
		<path fill="#FFFFFF" d="M1.991,17.453c0-0.128,0.056-0.2,0.2-0.2c0.144,0,0.2,0.072,0.2,0.2v0.92l1.219-1.036
			c0.048-0.04,0.1-0.08,0.164-0.08c0.116,0,0.192,0.096,0.192,0.208c0,0.068-0.044,0.124-0.092,0.168l-1.379,1.175l1.371,1.175
			c0.052,0.044,0.1,0.1,0.1,0.172c0,0.112-0.076,0.208-0.192,0.208c-0.084,0-0.152-0.072-0.216-0.12L2.391,19.24v0.924
			c0,0.128-0.056,0.2-0.2,0.2c-0.144,0-0.2-0.072-0.2-0.2V17.453z"/>
		<path fill="#FFFFFF" d="M6.646,19.963c0.104,0,0.2,0.056,0.2,0.2c0,0.144-0.096,0.2-0.2,0.2H4.871v-2.911
			c0-0.128,0.056-0.2,0.2-0.2c0.144,0,0.2,0.072,0.2,0.2v2.511H6.646z"/>
		<path fill="#FFFFFF" d="M8.15,17.653v0.144c0,0.128-0.056,0.2-0.2,0.2c-0.144,0-0.2-0.072-0.2-0.2v-0.544h1.975v0.544
			c0,0.128-0.056,0.2-0.2,0.2c-0.144,0-0.2-0.072-0.2-0.2v-0.144H8.938v2.511c0,0.128-0.056,0.2-0.2,0.2c-0.144,0-0.2-0.072-0.2-0.2
			v-2.511H8.15z"/>
		<path fill="#FFFFFF" d="M12.206,19.963v-0.808c0-0.116,0.052-0.2,0.2-0.2c0.148,0,0.2,0.084,0.2,0.2v1.008
			c0,0.144-0.096,0.2-0.2,0.2h-1.575c-0.104,0-0.2-0.056-0.2-0.2c0-0.144,0.096-0.2,0.2-0.2h0.587v-2.311h-0.587
			c-0.104,0-0.2-0.056-0.2-0.2c0-0.144,0.096-0.2,0.2-0.2h0.987v2.71H12.206z"/>
		<path fill="#FFFFFF" d="M14.586,20.363c-0.3,0-0.472-0.12-0.6-0.38l-0.368-0.744c-0.068-0.136-0.108-0.264-0.108-0.419
			c0-0.176,0.032-0.284,0.112-0.444l0.368-0.74c0.136-0.276,0.308-0.384,0.616-0.384h0.679c0.088,0,0.2,0.048,0.2,0.2
			c0,0.144-0.108,0.2-0.2,0.2h-0.667c-0.172,0-0.2,0.016-0.276,0.168l-0.348,0.695c-0.052,0.108-0.084,0.18-0.084,0.304
			c0,0.112,0.036,0.18,0.084,0.276l0.34,0.691c0.08,0.164,0.12,0.176,0.3,0.176h0.651c0.088,0,0.2,0.048,0.2,0.2
			c0,0.144-0.108,0.2-0.2,0.2H14.586z"/>
		<path fill="#FFFFFF" d="M16.791,18.948h1.335c0.2,0,0.24,0.084,0.24,0.268v0.896c0,0.188-0.08,0.252-0.26,0.252H16.65
			c-0.188,0-0.26-0.068-0.26-0.252v-2.659c0-0.092,0.032-0.2,0.172-0.2h0.24c0.104,0,0.188,0.096,0.188,0.2
			c0,0.12-0.084,0.2-0.2,0.2V18.948z M16.791,19.348v0.616h1.175v-0.616H16.791z"/>
		<path fill="#FFFFFF" d="M19.663,17.653h-0.148c-0.132,0-0.244-0.048-0.244-0.2c0-0.144,0.108-0.2,0.232-0.2h0.667
			c0.312,0,0.468,0.128,0.604,0.4l0.352,0.704c0.08,0.164,0.12,0.28,0.12,0.464c0,0.16-0.044,0.295-0.116,0.439l-0.364,0.728
			c-0.14,0.284-0.32,0.376-0.631,0.376h-0.664c-0.104,0-0.2-0.056-0.2-0.2c0-0.144,0.096-0.2,0.2-0.2h0.192V17.653z M20.062,19.963
			h0.076c0.168,0,0.208-0.02,0.28-0.168l0.352-0.711c0.044-0.092,0.076-0.16,0.076-0.26c0-0.136-0.044-0.212-0.1-0.328l-0.332-0.675
			c-0.084-0.172-0.12-0.168-0.304-0.168h-0.048V19.963z"/>
		<path fill="#FFFFFF" d="M23.226,20.363c-0.3,0-0.472-0.12-0.6-0.38l-0.367-0.744c-0.068-0.136-0.108-0.264-0.108-0.419
			c0-0.176,0.032-0.284,0.112-0.444l0.367-0.74c0.137-0.276,0.309-0.384,0.616-0.384h0.68c0.088,0,0.199,0.048,0.199,0.2
			c0,0.144-0.107,0.2-0.199,0.2h-0.668c-0.172,0-0.2,0.016-0.275,0.168l-0.349,0.695c-0.052,0.108-0.084,0.18-0.084,0.304
			c0,0.112,0.036,0.18,0.084,0.276l0.34,0.691c0.08,0.164,0.12,0.176,0.3,0.176h0.652c0.088,0,0.199,0.048,0.199,0.2
			c0,0.144-0.107,0.2-0.199,0.2H23.226z"/>
		<path fill="#FFFFFF" d="M25.825,18.608h0.735c0.129,0,0.225,0.02,0.32,0.112c0.112,0.104,0.124,0.2,0.124,0.34v0.855
			c0,0.124-0.012,0.212-0.096,0.312c-0.101,0.12-0.204,0.136-0.349,0.136h-0.887c-0.104,0-0.164-0.028-0.264-0.072l-0.152-0.068
			C25.149,20.175,25.03,20.139,25.03,20c0-0.104,0.088-0.2,0.191-0.2c0.048,0,0.084,0.012,0.128,0.032l0.12,0.052
			c0.056,0.024,0.147,0.08,0.212,0.08h0.924v-0.956h-1.18v-1.755h1.379c0.104,0,0.2,0.056,0.2,0.2c0,0.144-0.096,0.2-0.2,0.2h-0.979
			V18.608z"/>
	</g>
</g>
<g id="Layer_5">
	<line fill="none" stroke="#BABABA" stroke-miterlimit="10" x1="43.584" y1="35.64" x2="43.584" y2="36.974"/>
	<line fill="none" stroke="#BABABA" stroke-miterlimit="10" x1="8.667" y1="28.64" x2="8.667" y2="29.974"/>
	<line fill="none" stroke="#BABABA" stroke-miterlimit="10" x1="43.75" y1="28.64" x2="43.75" y2="29.974"/>
	<line fill="none" stroke="#BABABA" stroke-miterlimit="10" x1="8.584" y1="42.64" x2="8.584" y2="43.974"/>
	<line fill="none" stroke="#BABABA" stroke-miterlimit="10" x1="43.584" y1="42.64" x2="43.584" y2="43.974"/>
</g>
</svg>
