<?xml version="1.0" encoding="utf-8"?>
<!-- Generator: Adobe Illustrator 15.1.0, SVG Export Plug-In . SVG Version: 6.00 Build 0)  -->
<!DOCTYPE svg PUBLIC "-//W3C//DTD SVG 1.1//EN" "http://www.w3.org/Graphics/SVG/1.1/DTD/svg11.dtd">
<svg version="1.1" id="Layer_1" xmlns="http://www.w3.org/2000/svg" xmlns:xlink="http://www.w3.org/1999/xlink" x="0px" y="0px"
	 width="46.875px" height="28.8px" viewBox="0 0 46.875 28.8" enable-background="new 0 0 46.875 28.8" xml:space="preserve">
<path fill="#008000" d="M2.16,7.199c0-0.754,0.688-1.437,1.442-1.437c0.753,0,1.437,0.683,1.437,1.437S4.355,8.641,3.602,8.641
	C2.848,8.641,2.16,7.953,2.16,7.199z M2.16,14.398c0-0.753,0.688-1.437,1.442-1.437c0.753,0,1.437,0.684,1.437,1.437
	c0,0.754-0.684,1.442-1.437,1.442C2.848,15.84,2.16,15.152,2.16,14.398z M2.16,21.602c0-0.754,0.688-1.441,1.442-1.441
	c0.753,0,1.437,0.688,1.437,1.441c0,0.753-0.684,1.438-1.437,1.438C2.848,23.039,2.16,22.354,2.16,21.602z M0,28.801l0.172-2.246
	h44.911V2.328H0V28.801"/>
<line x1="1.801" y1="10.801" x2="0" y2="9"/>
<line fill="none" stroke="#FFFFFF" stroke-width="0.576" stroke-linecap="round" x1="1.801" y1="10.801" x2="0" y2="9"/>
<line x1="0" y1="9" x2="0" y2="5.398"/>
<line fill="none" stroke="#FFFFFF" stroke-width="0.576" stroke-linecap="round" x1="0" y1="9" x2="0" y2="5.398"/>
<line x1="0" y1="5.398" x2="1.801" y2="3.602"/>
<line fill="none" stroke="#FFFFFF" stroke-width="0.576" stroke-linecap="round" x1="0" y1="5.398" x2="1.801" y2="3.602"/>
<line x1="5.398" y1="3.602" x2="7.199" y2="5.398"/>
<line fill="none" stroke="#FFFFFF" stroke-width="0.576" stroke-linecap="round" x1="5.398" y1="3.602" x2="7.199" y2="5.398"/>
<line x1="7.199" y1="5.398" x2="7.199" y2="9"/>
<line fill="none" stroke="#FFFFFF" stroke-width="0.576" stroke-linecap="round" x1="7.199" y1="5.398" x2="7.199" y2="9"/>
<line x1="7.199" y1="9" x2="5.398" y2="10.801"/>
<line fill="none" stroke="#FFFFFF" stroke-width="0.576" stroke-linecap="round" x1="7.199" y1="9" x2="5.398" y2="10.801"/>
<line x1="0" y1="23.397" x2="0" y2="19.801"/>
<line fill="none" stroke="#FFFFFF" stroke-width="0.576" stroke-linecap="round" x1="0" y1="23.397" x2="0" y2="19.801"/>
<line x1="0" y1="19.801" x2="1.801" y2="18"/>
<line fill="none" stroke="#FFFFFF" stroke-width="0.576" stroke-linecap="round" x1="0" y1="19.801" x2="1.801" y2="18"/>
<line x1="5.398" y1="18" x2="7.199" y2="19.801"/>
<line fill="none" stroke="#FFFFFF" stroke-width="0.576" stroke-linecap="round" x1="5.398" y1="18" x2="7.199" y2="19.801"/>
<line x1="1.801" y1="18" x2="0" y2="16.199"/>
<line fill="none" stroke="#FFFFFF" stroke-width="0.576" stroke-linecap="round" x1="1.801" y1="18" x2="0" y2="16.199"/>
<line x1="0" y1="16.199" x2="0" y2="12.602"/>
<line fill="none" stroke="#FFFFFF" stroke-width="0.576" stroke-linecap="round" x1="0" y1="16.199" x2="0" y2="12.602"/>
<line x1="0" y1="12.602" x2="1.801" y2="10.801"/>
<line fill="none" stroke="#FFFFFF" stroke-width="0.576" stroke-linecap="round" x1="0" y1="12.602" x2="1.801" y2="10.801"/>
<line x1="5.398" y1="10.801" x2="7.199" y2="12.602"/>
<line fill="none" stroke="#FFFFFF" stroke-width="0.576" stroke-linecap="round" x1="5.398" y1="10.801" x2="7.199" y2="12.602"/>
<line x1="7.199" y1="12.602" x2="7.199" y2="16.199"/>
<line fill="none" stroke="#FFFFFF" stroke-width="0.576" stroke-linecap="round" x1="7.199" y1="12.602" x2="7.199" y2="16.199"/>
<line x1="7.199" y1="16.199" x2="5.398" y2="18"/>
<line fill="none" stroke="#FFFFFF" stroke-width="0.576" stroke-linecap="round" x1="7.199" y1="16.199" x2="5.398" y2="18"/>
<line x1="1.801" y1="25.199" x2="5.398" y2="25.199"/>
<line fill="none" stroke="#FFFFFF" stroke-width="0.576" stroke-linecap="round" x1="1.801" y1="25.199" x2="5.398" y2="25.199"/>
<line x1="0" y1="23.397" x2="1.801" y2="25.199"/>
<line fill="none" stroke="#FFFFFF" stroke-width="0.576" stroke-linecap="round" x1="0" y1="23.397" x2="1.801" y2="25.199"/>
<line x1="5.398" y1="25.199" x2="7.199" y2="23.397"/>
<line fill="none" stroke="#FFFFFF" stroke-width="0.576" stroke-linecap="round" x1="5.398" y1="25.199" x2="7.199" y2="23.397"/>
<line x1="7.199" y1="19.801" x2="7.199" y2="23.397"/>
<line fill="none" stroke="#FFFFFF" stroke-width="0.576" stroke-linecap="round" x1="7.199" y1="19.801" x2="7.199" y2="23.397"/>
<line x1="1.801" y1="3.602" x2="5.398" y2="3.602"/>
<line fill="none" stroke="#FFFFFF" stroke-width="0.576" stroke-linecap="round" x1="1.801" y1="3.602" x2="5.398" y2="3.602"/>
<path fill="none" stroke="#9A916C" stroke-width="1.224" d="M5.652,21.602c0,1.132-0.918,2.05-2.05,2.05
	c-1.137,0-2.055-0.918-2.055-2.05c0-1.137,0.918-2.055,2.055-2.055C4.734,19.547,5.652,20.465,5.652,21.602z"/>
<path fill="none" stroke="#9A916C" stroke-width="1.224" d="M5.652,14.398c0,1.137-0.918,2.055-2.05,2.055
	c-1.137,0-2.055-0.918-2.055-2.055c0-1.132,0.918-2.05,2.055-2.05C4.734,12.348,5.652,13.266,5.652,14.398z"/>
<path fill="none" stroke="#9A916C" stroke-width="1.224" d="M5.652,7.199c0,1.133-0.918,2.055-2.05,2.055
	c-1.137,0-2.055-0.922-2.055-2.055c0-1.133,0.918-2.051,2.055-2.051C4.734,5.148,5.652,6.066,5.652,7.199z"/>
<rect x="24.509" y="3.694" fill-rule="evenodd" clip-rule="evenodd" width="11.677" height="11.119"/>
<rect x="8.77" y="3.773" fill-rule="evenodd" clip-rule="evenodd" fill="#8A6B00" width="4.398" height="8.719"/>
<rect x="18.753" y="3.816" fill-rule="evenodd" clip-rule="evenodd" width="4.492" height="4.274"/>
<rect x="25.681" y="20.867" fill-rule="evenodd" clip-rule="evenodd" width="6.646" height="3.625"/>
<rect x="9" y="15.773" fill-rule="evenodd" clip-rule="evenodd" fill="#8A6B00" width="4.398" height="8.719"/>
<rect x="15" y="15.773" fill-rule="evenodd" clip-rule="evenodd" fill="#8A6B00" width="4.398" height="8.719"/>
<rect x="14.999" y="3.773" fill-rule="evenodd" clip-rule="evenodd" fill="#8A6B00" width="2.199" height="4.36"/>
<rect x="20.999" y="20.133" fill-rule="evenodd" clip-rule="evenodd" fill="#8A6B00" width="2.199" height="4.36"/>
</svg>
