<?xml version="1.0" encoding="UTF-8" standalone="no"?>
<!-- Created with Inkscape (http://www.inkscape.org/) -->

<svg
   xmlns:dc="http://purl.org/dc/elements/1.1/"
   xmlns:cc="http://creativecommons.org/ns#"
   xmlns:rdf="http://www.w3.org/1999/02/22-rdf-syntax-ns#"
   xmlns:svg="http://www.w3.org/2000/svg"
   xmlns="http://www.w3.org/2000/svg"
   xmlns:xlink="http://www.w3.org/1999/xlink"
   xmlns:sodipodi="http://sodipodi.sourceforge.net/DTD/sodipodi-0.dtd"
   xmlns:inkscape="http://www.inkscape.org/namespaces/inkscape"
   version="1.2"
   width="30.322788"
   height="36.112854"
   viewBox="0 0 24.258231 28.890283"
   id="svg5088"
   inkscape:version="0.48.2 r9819"
   sodipodi:docname="IRS01A.svg">
  <sodipodi:namedview
     pagecolor="#ffffff"
     bordercolor="#666666"
     borderopacity="1"
     objecttolerance="10"
     gridtolerance="10"
     guidetolerance="10"
     inkscape:pageopacity="0"
     inkscape:pageshadow="2"
     inkscape:window-width="1436"
     inkscape:window-height="856"
     id="namedview3369"
     showgrid="false"
     fit-margin-top="0"
     fit-margin-left="0"
     fit-margin-right="0"
     fit-margin-bottom="0"
     inkscape:zoom="13.426345"
     inkscape:cx="15.256761"
     inkscape:cy="18.777719"
     inkscape:window-x="4"
     inkscape:window-y="0"
     inkscape:window-maximized="1"
     inkscape:current-layer="icon" />
  <desc
     id="desc5090">Fritzing breadboard generated by brd2svg</desc>
  <metadata
     id="metadata5233">
    <rdf:RDF>
      <cc:Work
         rdf:about="">
        <dc:format>image/svg+xml</dc:format>
        <dc:type
           rdf:resource="http://purl.org/dc/dcmitype/StillImage" />
        <dc:title></dc:title>
      </cc:Work>
    </rdf:RDF>
  </metadata>
  <defs
     id="defs5231">
    <linearGradient
       id="linearGradient7199">
      <stop
         id="stop7201"
         style="stop-color:#585858;stop-opacity:1"
         offset="0" />
    </linearGradient>
    <linearGradient
       x1="18.552565"
       y1="-13.138184"
       x2="25.196972"
       y2="-13.138184"
       id="linearGradient7203"
       xlink:href="#linearGradient7199"
       gradientUnits="userSpaceOnUse"
       gradientTransform="matrix(1.2377846,0,0,1.4076307,-15.180167,3.9862485)" />
  </defs>
  <g
     id="breadboard"
     style="stroke-width:0"
     transform="translate(-3.232836,-1.2186463)">
    <g
       id="icon"
       style="stroke-width:0"
       transform="matrix(0,1,-1,0,29.820928,1.3089284)">
      <path
         d="m -0.09028213,26.588088 0.26286412,-0.03165 28.62741801,0 0,-24.2265771 -28.8,0 -0.09028213,24.2582311 M 2.16,21.6 c 0,-0.753982 0.6860178,-1.439999 1.44,-1.439999 0.7539822,0 1.44,0.686017 1.44,1.439999 0,0.753982 -0.6860178,1.439999 -1.44,1.439999 -0.7539822,0 -1.44,-0.686017 -1.44,-1.439999 z m 0,-7.2 c 0,-0.753982 0.6860178,-1.439999 1.44,-1.439999 0.7539822,0 1.44,0.686017 1.44,1.439999 0,0.753982 -0.6860178,1.439999 -1.44,1.439999 -0.7539822,0 -1.44,-0.686017 -1.44,-1.439999 z m 0,-7.2 C 2.16,6.4460178 2.8460178,5.7600006 3.6,5.7600006 4.3539822,5.7600006 5.04,6.4460178 5.04,7.2 5.04,7.9539822 4.3539822,8.6399994 3.6,8.6399994 2.8460178,8.6399994 2.16,7.9539822 2.16,7.2 z"
         id="path5094"
         style="fill:#ff0000;stroke:none"
         inkscape:connector-curvature="0"
         sodipodi:nodetypes="ccccccsssssssssssssss" />
      <circle
         cx="3.5999999"
         cy="21.6"
         r="2.052"
         id="connector2pin"
         style="fill:none;stroke:#9a916c;stroke-width:1.22399998"
         d="m 5.652,21.6 c 0,1.133289 -0.9187118,2.052 -2.0520001,2.052 -1.1332883,0 -2.052,-0.918711 -2.052,-2.052 0,-1.133288 0.9187117,-2.052 2.052,-2.052 C 4.7332882,19.548 5.652,20.466712 5.652,21.6 z"
         sodipodi:cx="3.5999999"
         sodipodi:cy="21.6"
         sodipodi:rx="2.052"
         sodipodi:ry="2.052" />
      <circle
         cx="3.5999999"
         cy="14.4"
         r="2.052"
         id="connector3pin"
         style="fill:none;stroke:#9a916c;stroke-width:1.22399998"
         d="m 5.652,14.4 c 0,1.133288 -0.9187118,2.052 -2.0520001,2.052 -1.1332883,0 -2.052,-0.918712 -2.052,-2.052 0,-1.133289 0.9187117,-2.052 2.052,-2.052 C 4.7332882,12.348 5.652,13.266711 5.652,14.4 z"
         sodipodi:cx="3.5999999"
         sodipodi:cy="14.4"
         sodipodi:rx="2.052"
         sodipodi:ry="2.052" />
      <circle
         cx="3.5999999"
         cy="7.1999998"
         r="2.052"
         id="connector4pin"
         style="fill:none;stroke:#9a916c;stroke-width:1.22399998"
         d="m 5.652,7.1999998 c 0,1.1332883 -0.9187118,2.0520001 -2.0520001,2.0520001 -1.1332883,0 -2.052,-0.9187118 -2.052,-2.0520001 0,-1.1332883 0.9187117,-2.052 2.052,-2.052 1.1332883,0 2.0520001,0.9187117 2.0520001,2.052 z"
         sodipodi:cx="3.5999999"
         sodipodi:cy="7.1999998"
         sodipodi:rx="2.052"
         sodipodi:ry="2.052" />
      <rect
         width="8.2243443"
         height="5.951827"
         x="7.7839131"
         y="-17.483377"
         transform="scale(1,-1)"
         id="rect5235"
         style="fill:url(#linearGradient7203);fill-opacity:1;stroke:none" />
      <rect
         style="fill:#000000;fill-opacity:1;stroke:none"
         id="rect3371"
         transform="scale(1,-1)"
         y="-16.941685"
         x="8.3769293"
         height="4.9587235"
         width="3.1110406" />
      <rect
         width="3.1110406"
         height="4.9587235"
         x="12.259061"
         y="-16.941685"
         transform="scale(1,-1)"
         id="rect3383"
         style="fill:#000000;fill-opacity:1;stroke:none" />
      <path
         sodipodi:type="arc"
         style="opacity:0.92241378;fill:#ffffff;fill-opacity:1;stroke:#a2a14b;stroke-width:0.69999999;stroke-miterlimit:4;stroke-opacity:1;stroke-dasharray:none"
         id="path3385"
         sodipodi:cx="12.808778"
         sodipodi:cy="23.981192"
         sodipodi:rx="5.1347961"
         sodipodi:ry="5.3605018"
         d="m 17.943574,23.981192 a 5.1347961,5.3605018 0 1 1 -10.2695923,0 5.1347961,5.3605018 0 1 1 10.2695923,0 z"
         transform="matrix(0,-0.80000001,0.80000001,0,3.0375012,24.684736)" />
      <text
         xml:space="preserve"
         style="font-size:9.00000004px;font-style:normal;font-variant:normal;font-weight:normal;font-stretch:normal;line-height:125%;letter-spacing:0px;word-spacing:0px;fill:#000000;fill-opacity:1;stroke:none;font-family:OCR A Std;-inkscape-font-specification:OCR A Std"
         x="4.6177869"
         y="11.087428"
         id="text4155"
         sodipodi:linespacing="125%"
         transform="matrix(0,-0.80000001,0.80000001,0,-0.09028245,26.588092)"><tspan
           sodipodi:role="line"
           id="tspan4157"
           x="4.6177869"
           y="11.087428" /></text>
      <text
         xml:space="preserve"
         style="font-size:4.00000002px;font-style:normal;font-variant:normal;font-weight:normal;font-stretch:normal;line-height:125%;letter-spacing:0px;word-spacing:0px;fill:#000000;fill-opacity:1;stroke:none;font-family:OCR A Std;-inkscape-font-specification:OCR A Std"
         x="4.8412285"
         y="6.3951602"
         id="text4159"
         sodipodi:linespacing="125%"
         transform="matrix(0,-0.80000001,0.80000001,0,-0.09028245,26.588092)"><tspan
           sodipodi:role="line"
           id="tspan4161"
           x="4.8412285"
           y="6.3951602" /></text>
      <text
         xml:space="preserve"
         style="font-size:4.00000002px;font-style:normal;font-variant:normal;font-weight:normal;font-stretch:normal;line-height:125%;letter-spacing:0px;word-spacing:0px;fill:#000000;fill-opacity:1;stroke:none;font-family:OCR A Std;-inkscape-font-specification:OCR A Std"
         x="4.8412285"
         y="4.086267"
         id="text4163"
         sodipodi:linespacing="125%"
         transform="matrix(0,-0.80000001,0.80000001,0,-0.09028245,26.588092)"><tspan
           sodipodi:role="line"
           id="tspan4165"
           x="4.8412285"
           y="4.086267" /></text>
      <text
         xml:space="preserve"
         style="font-size:4.00000002px;font-style:normal;font-variant:normal;font-weight:normal;font-stretch:normal;line-height:125%;letter-spacing:0px;word-spacing:0px;fill:#000000;fill-opacity:1;stroke:none;font-family:OCR A Std;-inkscape-font-specification:OCR A Std"
         x="5.2881107"
         y="15.556254"
         id="text4167"
         sodipodi:linespacing="125%"
         transform="matrix(0,-0.80000001,0.80000001,0,-0.09028245,26.588092)"><tspan
           sodipodi:role="line"
           id="tspan4169"
           x="5.2881107"
           y="15.556254" /></text>
      <text
         xml:space="preserve"
         style="font-size:2.21124458px;font-style:normal;font-variant:normal;font-weight:normal;font-stretch:normal;line-height:125%;letter-spacing:0px;word-spacing:0px;fill:#000000;fill-opacity:1;stroke:none;font-family:OCR A Std;-inkscape-font-specification:OCR A Std"
         x="7.0477114"
         y="22.943983"
         id="text4171"
         sodipodi:linespacing="125%"><tspan
           sodipodi:role="line"
           id="tspan4173"
           x="7.0477114"
           y="22.943983">GND</tspan></text>
      <text
         sodipodi:linespacing="125%"
         id="text4175"
         y="7.9883113"
         x="7.1072955"
         style="font-size:2.21124458px;font-style:normal;font-variant:normal;font-weight:normal;font-stretch:normal;line-height:125%;letter-spacing:0px;word-spacing:0px;fill:#000000;fill-opacity:1;stroke:none;font-family:OCR A Std;-inkscape-font-specification:OCR A Std"
         xml:space="preserve"><tspan
           y="7.9883113"
           x="7.1072955"
           id="tspan4177"
           sodipodi:role="line">OUT</tspan></text>
    </g>
  </g>
</svg>
